<mxfile host="app.diagrams.net" modified="2024-01-22T01:04:23.005Z" agent="Mozilla/5.0 (Windows NT 10.0; Win64; x64; rv:121.0) Gecko/20100101 Firefox/121.0" etag="BMOxnQph3Z4pFMbzEogj" version="22.1.21" type="github">
  <diagram name="Proposed" id="K2TSOg5UEOMmx_PW1Zzw">
    <mxGraphModel dx="941" dy="1253" grid="1" gridSize="10" guides="1" tooltips="1" connect="1" arrows="1" fold="1" page="1" pageScale="1" pageWidth="1169" pageHeight="1654" math="0" shadow="0">
      <root>
        <mxCell id="0" />
        <mxCell id="1" parent="0" />
        <mxCell id="90FTuUXwLPcA-e6KGmKY-35" value="Training" style="rounded=1;whiteSpace=wrap;html=1;fillColor=none;dashed=1;dashPattern=12 12;labelPosition=center;verticalLabelPosition=top;align=center;verticalAlign=bottom;fontFamily=Lucida Console;fontSize=16;" vertex="1" parent="1">
          <mxGeometry x="20" y="50" width="390" height="360" as="geometry" />
        </mxCell>
        <mxCell id="90FTuUXwLPcA-e6KGmKY-36" value="Integration" style="rounded=1;whiteSpace=wrap;html=1;fillColor=none;dashed=1;dashPattern=12 12;labelPosition=center;verticalLabelPosition=top;align=center;verticalAlign=bottom;fontFamily=Lucida Console;fontSize=16;" vertex="1" parent="1">
          <mxGeometry x="585" y="210" width="365" height="490" as="geometry" />
        </mxCell>
        <mxCell id="90FTuUXwLPcA-e6KGmKY-3" style="edgeStyle=orthogonalEdgeStyle;rounded=0;orthogonalLoop=1;jettySize=auto;html=1;exitX=1;exitY=0.5;exitDx=0;exitDy=0;entryX=0;entryY=0.5;entryDx=0;entryDy=0;fontFamily=Lucida Console;" edge="1" parent="1" source="90FTuUXwLPcA-e6KGmKY-1" target="90FTuUXwLPcA-e6KGmKY-2">
          <mxGeometry relative="1" as="geometry" />
        </mxCell>
        <mxCell id="90FTuUXwLPcA-e6KGmKY-1" value="UI Randomizer" style="shape=process;whiteSpace=wrap;html=1;backgroundOutline=1;fontFamily=Lucida Console;" vertex="1" parent="1">
          <mxGeometry x="40" y="80" width="120" height="60" as="geometry" />
        </mxCell>
        <mxCell id="90FTuUXwLPcA-e6KGmKY-2" value="LVGL UI Generator" style="shape=process;whiteSpace=wrap;html=1;backgroundOutline=1;fontFamily=Lucida Console;" vertex="1" parent="1">
          <mxGeometry x="240" y="80" width="120" height="60" as="geometry" />
        </mxCell>
        <mxCell id="90FTuUXwLPcA-e6KGmKY-12" style="edgeStyle=orthogonalEdgeStyle;rounded=0;orthogonalLoop=1;jettySize=auto;html=1;exitX=0.5;exitY=1;exitDx=0;exitDy=0;exitPerimeter=0;entryX=0.5;entryY=0;entryDx=0;entryDy=0;fontFamily=Lucida Console;" edge="1" parent="1" source="90FTuUXwLPcA-e6KGmKY-4" target="90FTuUXwLPcA-e6KGmKY-11">
          <mxGeometry relative="1" as="geometry" />
        </mxCell>
        <mxCell id="90FTuUXwLPcA-e6KGmKY-4" value="Dataset" style="strokeWidth=2;html=1;shape=mxgraph.flowchart.database;whiteSpace=wrap;fontFamily=Lucida Console;" vertex="1" parent="1">
          <mxGeometry x="70" y="210" width="60" height="60" as="geometry" />
        </mxCell>
        <mxCell id="90FTuUXwLPcA-e6KGmKY-5" style="edgeStyle=orthogonalEdgeStyle;rounded=0;orthogonalLoop=1;jettySize=auto;html=1;exitX=0.5;exitY=1;exitDx=0;exitDy=0;entryX=0.5;entryY=0;entryDx=0;entryDy=0;entryPerimeter=0;fontFamily=Lucida Console;" edge="1" parent="1" source="90FTuUXwLPcA-e6KGmKY-1" target="90FTuUXwLPcA-e6KGmKY-4">
          <mxGeometry relative="1" as="geometry" />
        </mxCell>
        <mxCell id="90FTuUXwLPcA-e6KGmKY-7" value="Images&lt;br&gt;+ Labels" style="strokeWidth=2;html=1;shape=mxgraph.flowchart.multi-document;whiteSpace=wrap;fontFamily=Lucida Console;" vertex="1" parent="1">
          <mxGeometry x="256" y="210" width="88" height="60" as="geometry" />
        </mxCell>
        <mxCell id="90FTuUXwLPcA-e6KGmKY-8" style="edgeStyle=orthogonalEdgeStyle;rounded=0;orthogonalLoop=1;jettySize=auto;html=1;exitX=0.5;exitY=1;exitDx=0;exitDy=0;entryX=0.5;entryY=0;entryDx=0;entryDy=0;entryPerimeter=0;fontFamily=Lucida Console;" edge="1" parent="1" source="90FTuUXwLPcA-e6KGmKY-2" target="90FTuUXwLPcA-e6KGmKY-7">
          <mxGeometry relative="1" as="geometry" />
        </mxCell>
        <mxCell id="90FTuUXwLPcA-e6KGmKY-9" style="edgeStyle=orthogonalEdgeStyle;rounded=0;orthogonalLoop=1;jettySize=auto;html=1;exitX=0;exitY=0.5;exitDx=0;exitDy=0;exitPerimeter=0;entryX=1;entryY=0.5;entryDx=0;entryDy=0;entryPerimeter=0;fontFamily=Lucida Console;" edge="1" parent="1" source="90FTuUXwLPcA-e6KGmKY-7" target="90FTuUXwLPcA-e6KGmKY-4">
          <mxGeometry relative="1" as="geometry" />
        </mxCell>
        <mxCell id="90FTuUXwLPcA-e6KGmKY-11" value="YOLOv8&lt;br&gt;Model training" style="shape=process;whiteSpace=wrap;html=1;backgroundOutline=1;fontFamily=Lucida Console;" vertex="1" parent="1">
          <mxGeometry x="40" y="320" width="120" height="60" as="geometry" />
        </mxCell>
        <mxCell id="90FTuUXwLPcA-e6KGmKY-14" value="UI-Detector Base model" style="sketch=0;points=[[0,0,0],[0.25,0,0],[0.5,0,0],[0.75,0,0],[1,0,0],[0,1,0],[0.25,1,0],[0.5,1,0],[0.75,1,0],[1,1,0],[0,0.25,0],[0,0.5,0],[0,0.75,0],[1,0.25,0],[1,0.5,0],[1,0.75,0]];outlineConnect=0;fontColor=#232F3E;fillColor=#01A88D;strokeColor=#ffffff;dashed=0;verticalLabelPosition=top;verticalAlign=bottom;align=center;html=1;fontSize=12;fontStyle=0;aspect=fixed;shape=mxgraph.aws4.resourceIcon;resIcon=mxgraph.aws4.machine_learning;labelPosition=center;fontFamily=Lucida Console;" vertex="1" parent="1">
          <mxGeometry x="261" y="311" width="78" height="78" as="geometry" />
        </mxCell>
        <mxCell id="90FTuUXwLPcA-e6KGmKY-15" style="edgeStyle=orthogonalEdgeStyle;rounded=0;orthogonalLoop=1;jettySize=auto;html=1;exitX=1;exitY=0.5;exitDx=0;exitDy=0;entryX=0;entryY=0.5;entryDx=0;entryDy=0;entryPerimeter=0;fontFamily=Lucida Console;" edge="1" parent="1" source="90FTuUXwLPcA-e6KGmKY-11" target="90FTuUXwLPcA-e6KGmKY-14">
          <mxGeometry relative="1" as="geometry" />
        </mxCell>
        <mxCell id="90FTuUXwLPcA-e6KGmKY-23" style="edgeStyle=orthogonalEdgeStyle;rounded=0;orthogonalLoop=1;jettySize=auto;html=1;exitX=1;exitY=0.5;exitDx=0;exitDy=0;fontFamily=Lucida Console;" edge="1" parent="1" source="90FTuUXwLPcA-e6KGmKY-16" target="90FTuUXwLPcA-e6KGmKY-20">
          <mxGeometry relative="1" as="geometry">
            <Array as="points">
              <mxPoint x="570" y="640" />
              <mxPoint x="570" y="304" />
            </Array>
          </mxGeometry>
        </mxCell>
        <mxCell id="90FTuUXwLPcA-e6KGmKY-16" value="UI-Detector image" style="shape=image;html=1;verticalAlign=bottom;verticalLabelPosition=top;labelBackgroundColor=#ffffff;imageAspect=0;aspect=fixed;image=https://cdn0.iconfinder.com/data/icons/social-media-2104/24/social_media_social_media_logo_docker-128.png;labelPosition=center;align=center;fontFamily=Lucida Console;" vertex="1" parent="1">
          <mxGeometry x="430" y="576" width="128" height="128" as="geometry" />
        </mxCell>
        <mxCell id="90FTuUXwLPcA-e6KGmKY-25" style="edgeStyle=orthogonalEdgeStyle;rounded=0;orthogonalLoop=1;jettySize=auto;html=1;exitX=0.5;exitY=1;exitDx=0;exitDy=0;fontFamily=Lucida Console;" edge="1" parent="1" source="90FTuUXwLPcA-e6KGmKY-19" target="90FTuUXwLPcA-e6KGmKY-24">
          <mxGeometry relative="1" as="geometry" />
        </mxCell>
        <mxCell id="90FTuUXwLPcA-e6KGmKY-26" value="1) Fetch screendump" style="edgeLabel;html=1;align=center;verticalAlign=middle;resizable=0;points=[];fontFamily=Lucida Console;" vertex="1" connectable="0" parent="90FTuUXwLPcA-e6KGmKY-25">
          <mxGeometry x="-0.5385" y="-2" relative="1" as="geometry">
            <mxPoint x="47" y="5" as="offset" />
          </mxGeometry>
        </mxCell>
        <mxCell id="90FTuUXwLPcA-e6KGmKY-30" style="edgeStyle=orthogonalEdgeStyle;rounded=0;orthogonalLoop=1;jettySize=auto;html=1;exitX=0.5;exitY=0;exitDx=0;exitDy=0;entryX=0.5;entryY=1;entryDx=0;entryDy=0;fontFamily=Lucida Console;" edge="1" parent="1" source="90FTuUXwLPcA-e6KGmKY-19" target="90FTuUXwLPcA-e6KGmKY-28">
          <mxGeometry relative="1" as="geometry" />
        </mxCell>
        <mxCell id="90FTuUXwLPcA-e6KGmKY-31" value="2) predict elements" style="edgeLabel;html=1;align=center;verticalAlign=middle;resizable=0;points=[];fontFamily=Lucida Console;" vertex="1" connectable="0" parent="90FTuUXwLPcA-e6KGmKY-30">
          <mxGeometry x="0.3784" y="-2" relative="1" as="geometry">
            <mxPoint x="-59" y="-13" as="offset" />
          </mxGeometry>
        </mxCell>
        <mxCell id="90FTuUXwLPcA-e6KGmKY-33" style="edgeStyle=orthogonalEdgeStyle;rounded=0;orthogonalLoop=1;jettySize=auto;html=1;exitX=1;exitY=0.5;exitDx=0;exitDy=0;entryX=0;entryY=0.5;entryDx=0;entryDy=0;fontFamily=Lucida Console;" edge="1" parent="1" source="90FTuUXwLPcA-e6KGmKY-19" target="90FTuUXwLPcA-e6KGmKY-32">
          <mxGeometry relative="1" as="geometry" />
        </mxCell>
        <mxCell id="90FTuUXwLPcA-e6KGmKY-34" value="3) Provide element metadata" style="edgeLabel;html=1;align=center;verticalAlign=middle;resizable=0;points=[];fontFamily=Lucida Console;" vertex="1" connectable="0" parent="90FTuUXwLPcA-e6KGmKY-33">
          <mxGeometry x="0.4207" relative="1" as="geometry">
            <mxPoint x="58" y="-40" as="offset" />
          </mxGeometry>
        </mxCell>
        <mxCell id="90FTuUXwLPcA-e6KGmKY-19" value="" style="shape=image;verticalLabelPosition=bottom;labelBackgroundColor=default;verticalAlign=top;aspect=fixed;imageAspect=0;image=data:image/png,iVBORw0KGgoAAAANSUhEUgAAASwAAAEsCAMAAABOo35HAAAC91BMVEVHcEwAAAAAAAAAAAAAAAAAAAAAAAAAAAAAAAAAAAAAAAAAAAAAAAAAAAAAAAAAAAAAAAAAAAAAAAAAAAAAAAAAAAAAAAAAAAAAAAAAAAAAAAAAAAAAAAAAAAAAAAAAAAAAAAAAAAAAAAAAAAAAAAAAAAAAAAAAAAAAAAAAAAAAAAAAAAAAAAAAAAAAAAAAAAAAAAAAAAAAAAAAAAAAAAAAAAAAAAAAAAAAAAAAAAAAAAAAAAAAAAAAAAAAAAAAAAAAAAAAAAAAAAAAAAAAAAAAAAAAAAAAAAAAAAAAAAAAAAAAAAAAAAAAAAAAAAAAAAAAAAAAAAAAAAAAAAAAAAAAAAAAAAAAAAAAAAAAAAAAAAAAAAAAAAAAAAAAAAAAAAAAAAAAAAAAAAAAAAAAAAAAAAAAAAAAAAAAAAAAAAAAAAAAAAAAAAAAAAAAAAAAAAAAAAAAAAAAAAAAAAAAAAAAAAAAAAAAAAAAAAAAAAAAAAAAAAAAAAAAAAAAAAAAAAAAAAAAAAAAAAAAAAAAAAAAAAAAAAAAAAAAAAAAAAAAAAAAAAAAAAAAAAAAAAAAAAAAAAAAAAAAAAAAAAAAAAAAAAAAAAAAAAAAAAAAAAAAAAAAAAAAAAAAAAAAAAAAAAAAAAAAAAAAAAAAAAAAAAAAAAAAAAAAAAAAAAAAAAAAAAAAAAAAAAAAAAAAAAAAAAAAAAAAAAAAAAAAAAAAAAAAAAAAAAAAAAAAAAAAAAAAAAAAAAAAAAAAAAAAAAAAAAAAAAAAAAAAAAAAAAAAAAAAAAAAAAAAAAAAAAAAAAAAAAAAAAAAAAAAAAAAAAAAAAAAAAAAAAAAAAAAAAAAAAAAAAAAAAAAAAAAAAAAAAAAAAAAAAAAAAAAAAAAAAAAAAAAAAAAAAAAAAAAAAAAAAAAAAAAAAAAAAAAAAAAAAAAAAAAAAAAAAAAAAAAAAAAAAAAAAAAAAAAAAAAAAAAAAAAAAAAAAAAAAAAAAAAAAAAAAAAAAAAAABtnGycAAAA/XRSTlMABydYjLjY7fj9/+zXtopVJQYCJGiv4Pf+3qxkIQU5luH8kTQEAS6b6pUqEHXibQ0tsvv6q0rRQ1zn41Rh6WBfXl3rW+hWWvLk3fGuZyMcIjj5PTyteAx38GkD72tmU+ZSUeVOblA+329BzM8LpfNw2XEsj3KXMTeUH/R0pu52g/XQhbUIn0IvNh7NF8QWww8zqrvGxbqTOnPUGBIKhMhMh7O5kFcVt3rbjmzTeRHKy572sLFZ1Zm/HStJExqNfH0gRk+BP757f4A1tGoO0qPW3CmkSBmhY0BLhjAJvIuIvUV+icBlwSgbFMLazmKgnEfJkp2igibHRDuaMqipRd/ciwAADLtJREFUeAHs1AOTJUEMwPE8v5e1bdu2bds479n46Fd9vmKyNbNbPcm/XMP+NeB2+fyBYCgcicbQqmLRuPiExKTkFLizUtPSMzKzstHSsrNycvPyU+EuKigsKo6h5ZXklJaVg9tVVFbFoSeqrqkFd6urb0DPlNPYBC7W3NKKHqqt3Q+u1RGPHquzC9wptbsHPVdvH7hRRX8EPdhAQK3uVatikGqlWhVDcYiq5ayVajGsVKtimGqlWhUjo4iq5ayVajGsVKuim2qlWhVj1YiqpVZ8LbX6t/GJ21tNEq1Ui2GlWgwr1aJbqVZgAFG1nLNSLbXiaKkVT2tiHOnFpqZnLKh3Nua8FtMqMjdfuLBoQUvL83MR57UYVitzqylgTSlr6ysOazGsZjc2wao2t7Yd1UrqQWrbO7tgWbvpe3wtoVYAqXwtqVZGa94prT661ey+jVZG68AZrcMjvpVULb6VRC2+VaOxEqx1zLcSq3VyitSmjJVkrTOG1bmxEqTVcwH/dXlFt7ouB5ClVfwA/intId9KktYjP/zp8ROk9vSZsRKn1d4Ev0tf4VvJ0mq7hl/5b8hWz42VRK2cF78eeUm2emWsZGq93gXTmyO+lTyt6rdgCvKtJGq9qwCA98QT68PHAgDBWldpADBUwreSqJWdDlD+SbaV0fpMIpjzQf4NyeqLV62MVh5J68oPFx/4VjK1sgLwlXDbN2OlWkHIIFhtGCvVCn1v5y6jm0j3OI7/Amfb5I92VjpIoLkngwVNVtESdrc4ZPduJYFFz0Vvl3UNW5xut5Ti0OJOcVt3d3d3d5frikxGMil5hvl/Xke/Z948imlGW3GtDIzgVv+pFSMd9ZBH2nzTs+AI0vhs0pYNN2mbEYBDzJxF2nyIkKbYbDjGnK6kyaMX62QXHEO53FoseTgcZIzbUqzCuXCQQR0sxRpXCgcJ3GApVv0yOMjkG63FKndUrHkcC+BYHItjcSyOxbE4FsfiWByLY3EsjsWxOBbH4liSK78iUJHvkjiWFn/5/EZTr6pcsHDiDRMXLa5cMrXR/PIox1IRWLqscnncR4fyxZdXLltagdrnDZStqHLZI1Z1i5Wr+sukRu6/auXSatSm8tVr1t6QMWXSuvUbSiXRY23MbRAjLbFNueWoLaWbJ7npP4JbtnZWRI5VNmxiiPSEJm4rQ22YmVvjoUN13b5D2Fj5uTuDZIRvV24+Uq7x7j10BN/exmLGUobuc5NR7i4tFKSUa/8BUrGonYixKgpGkBlnXRBACjU/eA2puulm8WK1OzlI5gT33oJU8V54ukwJtJ4pWCzl1gNk3oHTFKRE6ZI8Sqikrlix/M16UDJ6DPfDOv+YiTJpWHSbSLGypuZRcvIKXLDq9jsKSVNov0Cxsu7cQ8nac5fFWtFbV3lIR6VfmFj+C/ZQ8vZs98OCsjVx0jXublFiKScVkxXFRQqSJZ0xz0P6su8RJdaYNmRN+F4kaeN9YTJkoCCx5tQnqzLmIBnS/Q/4yJg7xdj5VzWDrJtxG8yrerAHGXW9bqxFxyCW8pCHrPM8rMAkZek6Hxn2IHTkH4tYE9pQKrSZAHMCU0eQCc1EiBVYR6mxeAfMeOTRIJlQMluEWEVBSo3gYzDu8Yu6kilbbhYgVukTlCo1pTDqipNDZM6TUQFibZcpZbbDmPzHTiGTskci/bFKD1DqPFUKIzpXusmsBwICxOroodSRx0JfdbOnybS8e5H+WIF5lEo3BqDnmWezyTT5D14BYj1XQqlUcqvuQtcUSsKjZRAgVltKrZbQ1HjWHkrCuuYQINbzB8gI2V3ilsmIA88jMWnUckpC5IXBECHWadmkK3J62xefe+m5F5dMi5Cu7JeRkHdsnJIwrmgyhIj1CunxrOpdjn/b2Gehj/SsQSLS2GvIvMiAVwEhYr32Oum45o0y/F/5m8Wk461qJHBvJpnXoWMnCBJrSI7uxaZeHMq7rT9p6zAI6ppPI9NCXeYDosR6ew9pCr7jx+Gim0PJTZUr75JpfS97HOLEeoy0ra3AkTqdTNqGQVW7HDIp2OBKBQLFuoM0xSbgaOdlkqatUFVAJo0oCAACxZIqk7icJUvnTadGoWLyW2SKb/FSBULFeu090iK/DzU9PaTlg2qo+HAEmdHjwSpArFg7JpGW+HyomVOPtEyrgorTImSc74E/SRAt1ooM0rLlo2TeNeV5qHifjAs//DEgXKzB/XSfEfNXvoy7GSouI6M8n8yWIGCs5z8lLbsqoKbTKtLSbzBUXEwGZU4vB0SMteMz0vLAa1DjWkxanrgNKj4nQzyL7olCzFjetaTlCwWqviQtJ7ig4qtsMiD27vOAoLF0Jh0ug7qxpOUNqDmxK+mSvz4tClFj6UxnFS6FurlxSsx9L9TMbEB6Crd+BAgca+NESuytfKibvJgSO30FVHWUSZM8cYwfQsdCe5kSCX6ORHqFzO910bmLPe+bmwHBYw3+jBJ57zYksuMtSuSJq5NZ+ZanjfRC+FioW0zq6j2HxN4Ok7qS3khkxUJKpPjyuwEbxPK+6yM1kQskJKZMdZMaz6UuJHTGaFIl12zIgi1ioeJbDx0tdEc1tLz2RoiO5vmuChr6hElFSetBgE1iYcc32XSk4usnQ9vk74vpSO7Lb4MWZUMOHeWpPi7YJxZmDmxCh5Gf6uOFHu+5T8l0mJxt1dDR4vUgHabkix8AO8UC2n3TVab/8jR5cxCMGPTmOM//A49o2Rn6qrZNCtH/7Lmp20ykMNaPxyIWos9ctG9KfI97T736TYsGKTBGGvTYHzMy90SyY08/uuySKAwp2//d8ky3L5gd/uzy1RVIpU6WYxnlvf2K2V+9NKfMDzO8K16dfetP8wdnwbjoxle/unDkT52rFMCmsYTFsTgWx+JYHItjcSyOxbE4FsfiWByLY3EsjsWxOBbH4lgci2NxLI7FsTgWx+JYHItjcSyOxbE4FsfiWByLY3EsjsWxVnEswx7/mmNxLLvHknb88MjP5wvl57l1bouKF0sp7fXCZyMKrxFM/7NOv+79IZJYsa6+b4qPBOVp0vAHgWJ5Nzwhk8DkT1+cKUqsyfflkeD2rN8hRqzqrSESnm93QIRY0oMRsgHfHVkCxFodJ1soyU1/rPJFZBPLm6c91jAf2cXD6Y61YxHZxoGP0hzrjGvINoJ10xzrIbKRlumN5R9ANjJvclpjVewiG3n6o7TGWpFBNnJWnbTGun0L2Uj8irTG2ricbCTcOa2xqj8gG+l3c1pj4Uuykfeq0xtruEz2cQfSG+uW0WQbe05Lcyz/d2QbN+5IcyxMiJNNhF5EumP525JNNAikPRbu3km2kDMU6Y+F85qQDcTPhQix8NXTJLzwi5IYsXDlJx4S21P3KhAkFlasHE0Ci/9SBxAmFqRWb9bsISFFnj54nhcixQKUsren/jJghmD2zXrn3lJJzM1sUa9g/LzzzzqOZTnWTo5lWMUujsWxOBbH4lji41gci2NxLLFxLI7FsThWGYziWE1uhoN8XGMpVvxXOEidEZZieXrCQUZFLMWi37xwDOUgWYsVbgHHaNVVL5abtP0+GQ7h+pK0+VBM2iLtJTiCclIJaXPjLNJROFByRKs+YdIRRw3piQ2XnNCqDen5FGuJaxlrRa/jTdIXe18Ct6Jv0GgP6Ys3k7hVJBeN+5HTaxlrRV07I6spGRH/XHJ4K5rxGjBQJiMyP5ec3YouAnDiODJWq7vi6FajbwGgtCUH1zLcimZFAaBF2GitnopzW8Um4J/8v5BB9XopTm1FT2bhX+bkOLSWiVYjrsR/tPcZrpWrOLKV5x38V6ALGRXurTiwFa37GP/Tqr7zaplptWU+DvHy2cZrnak4rVWbUThMbqbxt/ZRnNUq9qKCw0ifO6qWqVbDJcBCrXMVR7dyVC39VrpLEGZq9ajrlFYnSVAlvRg3X8uhrQCpmflaTm1lrtbZ5zi7lflaTm5lslYjZ7cyWevzLNiK66SwhVYWaxVf3k6CbUidvywx3qooCqS2lpzT8t7GH1fYwMc/jDrYVTbbSp/0foyMi4yu2WUDNSMiROZb6ZOGx8jR9Fvp1+JW+rW4lfVa3Ipr9X/MaCuu1X+YTiu9WtxKnzSwkFsZJp1UyK24ln4r67W4Fdcy24pr9e+o04pr6bTiWjqtrIkWFXIrrqXfimvpt7Jei1txrTzDrbhW3ng/wLXS1wqIvh+m405mkR+1Qhn1NB1nxp0jobb8eoKPjiOet+aiFlVtHk3HjbMf3ohapfw6K07HhcI/XymhtmWd/0sHD9mcZ/Ssl1w4FqI/PLb3FLdMNiVHuj46vp0fx4zrw/13nJBRL9vnsRWfO/PTBet73/IakvJ3I+cIfFPTu2cAAAAASUVORK5CYII=;imageBackground=none;fontFamily=Lucida Console;" vertex="1" parent="1">
          <mxGeometry x="600" y="430" width="110" height="110" as="geometry" />
        </mxCell>
        <mxCell id="90FTuUXwLPcA-e6KGmKY-29" value="" style="edgeStyle=orthogonalEdgeStyle;rounded=0;orthogonalLoop=1;jettySize=auto;html=1;fontFamily=Lucida Console;" edge="1" parent="1" source="90FTuUXwLPcA-e6KGmKY-20" target="90FTuUXwLPcA-e6KGmKY-28">
          <mxGeometry relative="1" as="geometry" />
        </mxCell>
        <mxCell id="90FTuUXwLPcA-e6KGmKY-20" value="Container Host" style="sketch=0;pointerEvents=1;shadow=0;dashed=0;html=1;strokeColor=none;labelPosition=center;verticalLabelPosition=top;verticalAlign=bottom;outlineConnect=0;align=center;shape=mxgraph.office.servers.physical_host;fillColor=#2072B8;fontFamily=Lucida Console;" vertex="1" parent="1">
          <mxGeometry x="621.41" y="239" width="67.19" height="130" as="geometry" />
        </mxCell>
        <mxCell id="90FTuUXwLPcA-e6KGmKY-24" value="" style="sketch=0;outlineConnect=0;fontColor=#232F3E;gradientColor=none;fillColor=#ED7100;strokeColor=none;dashed=0;verticalLabelPosition=bottom;verticalAlign=top;align=center;html=1;fontSize=12;fontStyle=0;aspect=fixed;pointerEvents=1;shape=mxgraph.aws4.braket_embedded_simulator;fontFamily=Lucida Console;" vertex="1" parent="1">
          <mxGeometry x="616" y="605" width="78" height="78" as="geometry" />
        </mxCell>
        <mxCell id="90FTuUXwLPcA-e6KGmKY-28" value="UI-Detector container" style="shape=image;html=1;verticalAlign=bottom;verticalLabelPosition=top;labelBackgroundColor=#ffffff;imageAspect=0;aspect=fixed;image=https://cdn1.iconfinder.com/data/icons/social-media-2106/24/social_media_social_media_logo_docker-128.png;labelPosition=center;align=center;fontFamily=Lucida Console;" vertex="1" parent="1">
          <mxGeometry x="740" y="240" width="128" height="128" as="geometry" />
        </mxCell>
        <mxCell id="90FTuUXwLPcA-e6KGmKY-50" style="edgeStyle=orthogonalEdgeStyle;rounded=0;orthogonalLoop=1;jettySize=auto;html=1;exitX=0.5;exitY=1;exitDx=0;exitDy=0;entryX=0.5;entryY=0;entryDx=0;entryDy=0;fontFamily=Lucida Console;" edge="1" parent="1" source="90FTuUXwLPcA-e6KGmKY-32" target="90FTuUXwLPcA-e6KGmKY-49">
          <mxGeometry relative="1" as="geometry" />
        </mxCell>
        <mxCell id="90FTuUXwLPcA-e6KGmKY-52" value="4) Run Testcase" style="edgeLabel;html=1;align=center;verticalAlign=middle;resizable=0;points=[];fontFamily=Lucida Console;" vertex="1" connectable="0" parent="90FTuUXwLPcA-e6KGmKY-50">
          <mxGeometry x="0.0101" y="5" relative="1" as="geometry">
            <mxPoint x="5" y="-25" as="offset" />
          </mxGeometry>
        </mxCell>
        <mxCell id="90FTuUXwLPcA-e6KGmKY-32" value="UI Testcase" style="shape=process;whiteSpace=wrap;html=1;backgroundOutline=1;fontFamily=Lucida Console;" vertex="1" parent="1">
          <mxGeometry x="820" y="455" width="120" height="60" as="geometry" />
        </mxCell>
        <mxCell id="90FTuUXwLPcA-e6KGmKY-40" value="Fine-tune" style="rounded=1;whiteSpace=wrap;html=1;fillColor=none;dashed=1;dashPattern=12 12;labelPosition=center;verticalLabelPosition=top;align=center;verticalAlign=bottom;fontFamily=Lucida Console;fontSize=16;" vertex="1" parent="1">
          <mxGeometry x="20" y="445" width="380" height="245" as="geometry" />
        </mxCell>
        <mxCell id="90FTuUXwLPcA-e6KGmKY-44" style="edgeStyle=orthogonalEdgeStyle;rounded=0;orthogonalLoop=1;jettySize=auto;html=1;exitX=0.5;exitY=1;exitDx=0;exitDy=0;exitPerimeter=0;entryX=0.5;entryY=0;entryDx=0;entryDy=0;fontFamily=Lucida Console;" edge="1" parent="1" source="90FTuUXwLPcA-e6KGmKY-41" target="90FTuUXwLPcA-e6KGmKY-42">
          <mxGeometry relative="1" as="geometry" />
        </mxCell>
        <mxCell id="90FTuUXwLPcA-e6KGmKY-41" value="&lt;br&gt;&lt;br&gt;Proprietary UI&lt;br&gt;screenshots" style="strokeWidth=2;html=1;shape=mxgraph.flowchart.database;whiteSpace=wrap;fontFamily=Lucida Console;" vertex="1" parent="1">
          <mxGeometry x="60" y="470" width="100" height="100" as="geometry" />
        </mxCell>
        <mxCell id="90FTuUXwLPcA-e6KGmKY-42" value="UI-Detector&lt;br&gt;Base Model&lt;br&gt;fine-tune" style="shape=process;whiteSpace=wrap;html=1;backgroundOutline=1;fontFamily=Lucida Console;" vertex="1" parent="1">
          <mxGeometry x="50" y="610" width="120" height="60" as="geometry" />
        </mxCell>
        <mxCell id="90FTuUXwLPcA-e6KGmKY-48" style="edgeStyle=orthogonalEdgeStyle;rounded=0;orthogonalLoop=1;jettySize=auto;html=1;exitX=1;exitY=0.5;exitDx=0;exitDy=0;exitPerimeter=0;fontFamily=Lucida Console;" edge="1" parent="1" source="90FTuUXwLPcA-e6KGmKY-43" target="90FTuUXwLPcA-e6KGmKY-16">
          <mxGeometry relative="1" as="geometry" />
        </mxCell>
        <mxCell id="90FTuUXwLPcA-e6KGmKY-43" value="Proprietary UI-Detector" style="sketch=0;points=[[0,0,0],[0.25,0,0],[0.5,0,0],[0.75,0,0],[1,0,0],[0,1,0],[0.25,1,0],[0.5,1,0],[0.75,1,0],[1,1,0],[0,0.25,0],[0,0.5,0],[0,0.75,0],[1,0.25,0],[1,0.5,0],[1,0.75,0]];outlineConnect=0;fontColor=#232F3E;fillColor=#01A88D;strokeColor=#ffffff;dashed=0;verticalLabelPosition=top;verticalAlign=bottom;align=center;html=1;fontSize=12;fontStyle=0;aspect=fixed;shape=mxgraph.aws4.resourceIcon;resIcon=mxgraph.aws4.machine_learning;labelPosition=center;fontFamily=Lucida Console;" vertex="1" parent="1">
          <mxGeometry x="261" y="601" width="78" height="78" as="geometry" />
        </mxCell>
        <mxCell id="90FTuUXwLPcA-e6KGmKY-45" style="edgeStyle=orthogonalEdgeStyle;rounded=0;orthogonalLoop=1;jettySize=auto;html=1;exitX=1;exitY=0.5;exitDx=0;exitDy=0;entryX=0;entryY=0.5;entryDx=0;entryDy=0;entryPerimeter=0;fontFamily=Lucida Console;" edge="1" parent="1" source="90FTuUXwLPcA-e6KGmKY-42" target="90FTuUXwLPcA-e6KGmKY-43">
          <mxGeometry relative="1" as="geometry" />
        </mxCell>
        <mxCell id="90FTuUXwLPcA-e6KGmKY-51" style="edgeStyle=orthogonalEdgeStyle;rounded=0;orthogonalLoop=1;jettySize=auto;html=1;exitX=0;exitY=0.5;exitDx=0;exitDy=0;fontFamily=Lucida Console;" edge="1" parent="1" source="90FTuUXwLPcA-e6KGmKY-49" target="90FTuUXwLPcA-e6KGmKY-24">
          <mxGeometry relative="1" as="geometry" />
        </mxCell>
        <mxCell id="90FTuUXwLPcA-e6KGmKY-53" value="5) UI Interaction" style="edgeLabel;html=1;align=center;verticalAlign=middle;resizable=0;points=[];fontFamily=Lucida Console;" vertex="1" connectable="0" parent="90FTuUXwLPcA-e6KGmKY-51">
          <mxGeometry x="0.0606" y="1" relative="1" as="geometry">
            <mxPoint x="7" y="-15" as="offset" />
          </mxGeometry>
        </mxCell>
        <mxCell id="90FTuUXwLPcA-e6KGmKY-49" value="Element based routine" style="shape=process;whiteSpace=wrap;html=1;backgroundOutline=1;fontFamily=Lucida Console;" vertex="1" parent="1">
          <mxGeometry x="820" y="614" width="120" height="60" as="geometry" />
        </mxCell>
      </root>
    </mxGraphModel>
  </diagram>
</mxfile>
